<svg width="201" height="81" viewBox="0 0 201 81" xmlns="http://www.w3.org/2000/svg"><path d="M.2.2h200v80H.2z"/><circle cx="120.2" cy="41.21" r="3" fill="#fff"/><path d="M165.2 32.91v-.7h-5v18h5V39.55c0-1.29 1.23-2.34 2.51-2.34 1.29 0 2.49 1.05 2.49 2.34V50.2h5V39.5a2.3 2.3 0 1 1 4.6 0v10.7h5.4v-9.47c0-2.77-.48-5.17-1.95-6.62a6.51 6.51 0 0 0-4.7-1.91 7.32 7.32 0 0 0-5.06 2 5.92 5.92 0 0 0-4.45-2c-1.15 0-2.88.24-3.84.7Z" fill="#fff"/><path fill-rule="evenodd" d="M156.08 34.87a8.63 8.63 0 0 0-6.37-2.66c-2.5 0-4.67.9-6.41 2.66h-.01a8.8 8.8 0 0 0-2.59 6.35 8.8 8.8 0 0 0 2.59 6.34v.01a8.74 8.74 0 0 0 6.42 2.64c2.51 0 4.68-.89 6.4-2.65a8.8 8.8 0 0 0 2.59-6.34c0-2.45-.88-4.6-2.62-6.35Zm-3.74 9.18a3.74 3.74 0 0 0 1.13-2.75c0-1.1-.38-2.01-1.16-2.8v-.02h-.01a3.43 3.43 0 0 0-2.61-1.17 3.4 3.4 0 0 0-2.59 1.16v.01c-.77.8-1.14 1.7-1.14 2.82 0 1.12.36 2.01 1.08 2.76.7.73 1.56 1.1 2.67 1.1 1.05 0 1.9-.36 2.63-1.11Z" fill="#fff"/><path d="M124.2 41.27c0-2.48.9-4.63 2.65-6.39a9.19 9.19 0 0 1 6.78-2.67c1.61 0 3.12.6 4.38 1.41.91.6 2.07 1.87 2.87 3.2l-4.32 2.56c-.27-1.22-1.75-2.12-3-2.12-1.26 0-2.24.39-3.03 1.15a3.52 3.52 0 0 0-1.17 2.73 3.9 3.9 0 0 0 1.18 2.87 3.99 3.99 0 0 0 3.01 1.2c1.33 0 2.5-.9 3-1.83l4.43 2.54c-.9 1.31-2.13 2.64-3.28 3.19a9.59 9.59 0 0 1-4.33 1.1 9.04 9.04 0 0 1-6.53-2.59h-.01a8.64 8.64 0 0 1-2.63-6.35ZM116.2 50.2h-5v-23l5-2v25ZM96.6 44.11a3.62 3.62 0 0 0 2.7 1.14c1.04 0 1.91-.35 2.69-1.1a3.68 3.68 0 0 0 1.14-2.79c0-1.18-.39-2.09-1.12-2.82H102a3.64 3.64 0 0 0-2.73-1.13c-1.07 0-1.94.37-2.7 1.16a3.77 3.77 0 0 0-1.14 2.76c0 1.07.37 1.97 1.16 2.78Zm6.6 5.15a9 9 0 0 1-4.07.95 8.7 8.7 0 0 1-6.33-2.64h-.01v-.01a8.72 8.72 0 0 1-2.59-6.28c0-2.43.88-4.54 2.63-6.26a8.8 8.8 0 0 1 6.41-2.63c1.38 0 2.82.3 3.96.87v-1.05h5v18h-5v-.95Z" fill="#fff"/><path d="M90.2 37.2h-3v6.94a1 1 0 0 0 1 1h2v4.63l-2.02.2c-.85.15-1.58.24-2.14.24a3.98 3.98 0 0 1-2.9-1.04l-.02-.02h-.01c-.78-.82-.91-1.93-.91-3v-8.94h-3v-5h3v-3l5-2v5h3v5ZM73.2 50.2v-18h5v18h-5ZM73.55 26.1c-.57.6-.85 1.31-.85 2.13 0 .79.28 1.48.85 2.08.6.6 1.3.9 2.13.9.85 0 1.56-.29 2.12-.86.6-.6.9-1.3.9-2.12 0-.85-.3-1.56-.9-2.13a2.8 2.8 0 0 0-2.12-.9c-.82 0-1.53.3-2.13.9Z" fill="#fff"/><path fill-rule="evenodd" d="M59.42 44.27a3.72 3.72 0 0 0 2.74 1.11c1.02 0 1.88-.35 2.66-1.14A3.8 3.8 0 0 0 66 41.42c0-1.12-.37-2.02-1.14-2.8h-.01l-.01-.01a3.58 3.58 0 0 0-2.72-1.15c-1.1 0-1.99.37-2.73 1.13a3.88 3.88 0 0 0-1.18 2.83c0 1.17.46 2.08 1.22 2.85Zm-1.22-11V32.2h-5v23h5v-5.78c1.19.62 2.7.95 4.1.95 2.45 0 4.59-.9 6.31-2.66a8.8 8.8 0 0 0 2.59-6.35c0-2.45-.88-4.59-2.63-6.33a8.75 8.75 0 0 0-6.4-2.66c-1.38 0-2.84.3-3.97.88Z" fill="#fff"/><path d="M39.6 44.11a3.62 3.62 0 0 0 2.7 1.14c1.04 0 1.91-.35 2.69-1.1a3.68 3.68 0 0 0 1.14-2.8c0-1.18-.39-2.08-1.12-2.81l-.01-.01a3.64 3.64 0 0 0-2.73-1.12c-1.07 0-1.94.37-2.7 1.15v.01a3.77 3.77 0 0 0-1.14 2.76c0 1.07.37 1.97 1.16 2.78Zm6.6 5.15a9 9 0 0 1-4.07.95 8.7 8.7 0 0 1-6.33-2.64h-.01v-.01a8.72 8.72 0 0 1-2.59-6.28c0-2.43.88-4.55 2.63-6.27a8.8 8.8 0 0 1 6.41-2.63c1.38 0 2.82.3 3.96.88V32.2h5v18h-5v-.95ZM28.91 49.2c-1.4.68-2.93 1-4.54 1a9.04 9.04 0 0 1-6.53-2.58h-.01a8.63 8.63 0 0 1-2.63-6.35c0-2.48.9-4.63 2.65-6.39a9.19 9.19 0 0 1 6.78-2.67c1.61 0 3.13.35 4.51 1.07a8.47 8.47 0 0 1 3.35 3.1l-4.16 2.76a4.48 4.48 0 0 0-3.78-1.88c-1.25 0-2.23.39-3.02 1.15a3.52 3.52 0 0 0-1.17 2.73 3.9 3.9 0 0 0 1.18 2.87 3.99 3.99 0 0 0 3.01 1.2c1.4 0 2.59-.53 3.64-1.72l4.43 2.46-.17.25a8.71 8.71 0 0 1-3.54 3Z" fill="#fff"/></svg>