<svg width="132" height="60" viewBox="0 0 132 60" fill="none" xmlns="http://www.w3.org/2000/svg">
<rect width="132" height="60" fill="black"/>
<path d="M49.3897 20.9761V23.7939H46.5956L49.3897 20.9761Z" fill="white"/>
<path d="M49.3897 35.7683H46.5956V25.0539H49.3897V35.7683Z" fill="white"/>
<path d="M114.003 26.6053C112.985 25.571 111.696 25.0539 110.138 25.0539C108.925 25.0539 107.748 25.4662 106.843 26.2776L106.359 25.0539H104.508V39.5232H107.35V34.9355C108.188 35.5102 109.124 35.8117 110.138 35.7991C111.678 35.7991 112.964 35.278 113.994 34.2358C115.025 33.1935 115.54 31.885 115.54 30.3103C115.54 28.7356 115.028 27.6356 114.003 26.5934V26.6053ZM111.921 32.343C111.394 32.8735 110.652 33.1703 109.907 33.1486C109.164 33.1724 108.424 32.875 107.901 32.343C107.377 31.8076 107.086 31.0581 107.111 30.3069C107.104 29.7983 107.225 29.2961 107.464 28.8477C107.935 27.9547 108.92 27.4438 109.915 27.4584C110.912 27.4416 111.881 27.9629 112.359 28.8477C112.603 29.2943 112.728 29.7971 112.722 30.3069C112.745 31.0597 112.45 31.8101 111.921 32.343ZM58.9823 26.1613C58.0032 25.2764 56.7239 24.8031 55.4081 24.8389C52.6495 24.9142 50.3762 27.2721 50.4307 30.0389C50.4206 30.9594 50.6512 31.8664 51.0992 32.669C51.9804 34.2644 53.7313 35.1505 55.5464 35.1339C56.599 35.1521 58.0113 34.6915 58.4852 34.3074V34.6915C58.5453 36.1129 57.2806 37.0675 55.9095 37.0239C54.9567 37.0326 53.8677 36.7069 53.5001 35.7639H50.7259C51.179 38.2772 53.5858 39.542 55.9655 39.542C57.8133 39.5897 59.6996 38.77 60.596 37.0945C61.0387 36.2319 61.3844 35.2711 61.3603 34.3006V25.0539H60.0123L58.9823 26.1613ZM55.8705 32.7219C55.1735 32.7455 54.4784 32.4653 53.9905 31.9641C53.5011 31.4523 53.1459 30.7435 53.1703 30.0338C53.1254 28.5603 54.4251 27.3636 55.8858 27.3636C57.377 27.3636 58.5097 28.5713 58.5058 30.0461C58.502 31.4994 57.3647 32.77 55.8705 32.7219ZM100.557 26.2765C99.6314 25.439 98.4235 25.0278 97.1788 25.0539C95.6268 25.0539 94.3384 25.5318 93.3136 26.5684C92.2887 27.6049 91.7797 28.7362 91.7865 30.2984C91.7865 31.872 92.2955 33.1804 93.3136 34.2238C94.3316 35.2672 95.62 35.765 97.1788 35.7639C98.4053 35.7865 99.5963 35.3723 100.52 34.56L100.747 35.7639H102.943V25.0539H100.862L100.557 26.2765ZM97.3994 33.2439C96.5274 33.2439 95.9154 32.8607 95.3938 32.3277C94.8673 31.7926 94.5743 31.0423 94.598 30.2898C94.5756 28.7011 95.8183 27.5476 97.4028 27.5739C98.9575 27.5293 100.209 28.7401 100.209 30.2813C100.209 31.0376 99.9223 31.7653 99.4066 32.3157C98.9545 32.9347 98.1497 33.2439 97.3994 33.2439ZM86.1083 33.2439C84.9027 33.2439 83.8292 32.4343 83.6024 31.2502C83.5259 30.8509 83.4726 30.4918 83.4784 30.2881C83.4323 28.8186 84.5901 27.5377 86.1117 27.5739C87.1849 27.5566 88.1764 28.0991 88.611 29.0764H91.3801C90.9295 26.583 88.6527 24.9892 86.1304 25.0539C83.0789 25.0539 80.6561 27.2144 80.6516 30.2779C80.6191 33.2805 83.068 35.8017 86.1117 35.7639C88.6964 35.7639 90.9877 33.8978 91.4141 31.3539H88.6077C88.3246 32.3935 87.5243 33.2439 86.4468 33.2439H86.1083ZM77.6144 31.7064V27.3696H80.4005V25.1236H77.5567V22.4167H77.3073L72.9653 26.7757V27.3696H74.8317V32.0631C74.8132 32.7516 74.9642 33.4341 75.2712 34.0497C75.8806 35.2298 77.2078 35.796 78.495 35.7639H80.4615V33.2766H79.2025C78.3422 33.2766 77.5536 32.6576 77.6144 31.7064ZM68.8608 24.883C67.7162 24.8528 66.5766 25.2954 65.749 26.0913V19.3839L62.9629 22.1727V35.7639H65.749V30.0338C65.749 29.2032 65.9588 28.5444 66.3785 28.0574C66.7936 27.5759 67.4252 27.3013 68.0583 27.327C69.4159 27.327 69.8534 28.4483 69.8534 29.6498V35.7639H72.6395V29.1958C72.6395 26.9045 71.318 24.8744 68.8608 24.8744V24.883Z" fill="white"/>
<path fill-rule="evenodd" clip-rule="evenodd" d="M34.9001 30.4039C34.9001 31.9217 35.4117 33.1944 36.4347 34.2219C37.4578 35.2494 38.7367 35.7632 40.2713 35.7632C41.4097 35.7817 42.524 35.4409 43.4497 34.791C44.3755 34.1411 45.0635 33.0465 45.4123 31.9839H42.4556C42.1859 32.7625 41.142 33.3324 40.2645 33.3192C38.9598 33.3761 37.8261 32.4885 37.7238 31.3539H45.5504C45.7229 30.1668 45.5208 28.7557 44.9468 27.6925C44.514 26.887 43.8587 26.2173 43.0558 25.76C43.0583 25.76 41.7508 25.0286 40.2662 25.0546C38.5367 25.0451 36.9137 25.8339 35.9027 27.196C35.2203 28.1185 34.8928 29.2643 34.9001 30.4039ZM42.8186 29.4639H37.8141C37.9337 28.291 39.0773 27.3564 40.2677 27.3949C41.4869 27.3779 42.8186 28.3679 42.8186 29.4639Z" fill="white"/>
<path d="M29.5 29.7154C30.8915 28.5785 31.75 27.0221 31.75 25.3058C31.75 21.8205 28.2316 19 23.8759 19C19.5201 19 16 21.8205 16 25.3003C16 27.0166 16.8585 28.5694 18.25 29.71C16.8585 30.8451 16 32.4016 16 34.1179C16 37.5995 19.5184 40.42 23.8759 40.42C28.2334 40.42 31.75 37.5995 31.75 34.1179C31.75 32.4016 30.8915 30.8451 29.5 29.7154ZM23.8706 36.9311C21.9355 36.9311 20.3628 35.6743 20.3628 34.1233C20.3628 33.2025 20.9204 32.3852 21.7807 31.8731L23.8688 29.7154L25.9605 31.8676C26.819 32.3798 27.3784 33.1952 27.3784 34.1179C27.3784 35.6689 25.8127 36.9257 23.8759 36.9257L23.8706 36.9311ZM25.8514 27.6087L23.8759 29.6591L21.8933 27.6087C20.9732 27.1038 20.3681 26.2556 20.3681 25.2949C20.3681 23.7457 21.939 22.4889 23.8759 22.4889C25.8127 22.4889 27.3837 23.7457 27.3837 25.2949C27.3837 26.2647 26.7785 27.1092 25.8514 27.6087Z" fill="white"/>
</svg>
