<svg width="201" height="81" viewBox="0 0 201 81" xmlns="http://www.w3.org/2000/svg"><path d="M.6.2h200v80H.6z"/><path d="M52.6 33.2h-19a19.6 19.6 0 0 1 1.64-3.42 18.95 18.95 0 0 1 12.74-8.32c5.13-.85 10.27.43 14.46 3.6 1.31.98 2.93 2.68 3.77 3.92.14.21.39.63.39.66l-14 15.57v-12ZM74.6 40.12l.02 8.08h5.98v-7h14v-5h-14v-1.72c.02-.16.12-.24.18-.36.18-.32.37-.5.73-.65.33-.15.53-.23 1.42-.27H94.6v-5H78.7c-.92.04-1.14.15-1.61.37h-.01a4.17 4.17 0 0 0-2 2.11c-.5 1.05-.5.35-.48 9.44ZM102.15 38.06c-2.65 3.85-4.54 6.56-6.98 10.14h5.97l5.06-7.06 4.93 7.06h6.04l-6.97-10.1 6.78-9.9h-5.87l-4.86 6.77-4.9-6.76h-6.16l6.96 9.85ZM140.6 40.4c0 4.32 0 7.76.02 7.8h5.98c.02-4.5-.02-8.63 0-13.13 0-.96.8-1.86 1.76-1.86h3.24v15c1.9 0 4.1-.02 6 0v-15h2.69c1.02-.02 2.27.77 2.31 1.86.02 4.5-.02 8.63 0 13.13h5.98l.01-7.29c.02-5.36.01-8.08.01-8.08 0-2.32-1.53-4.62-3.77-4.62H144.3c-2.3 0-3.68 2.52-3.68 4.33l-.02 7.86ZM117.6 45.1c.11 2.12 1.9 3.1 3.4 3.1h14.46c.7 0 1.42-.04 2.07-.33 2.04-.9 2.02-2.67 2.05-4.62v-2.04h-5.03c-.07.4-.15.8-.3 1.18-.49 1.18-2.02 1.25-3.3 1.25h-5.53a2.4 2.4 0 0 1-.95-.17c-.43-.19-.67-.38-.84-.65a3.03 3.03 0 0 1-.29-1.59v-5.96c0-.47 0-.96.22-1.37.27-.48.72-.7 1.37-.7h7.79c.74 0 1.65.65 1.65 1.4h5.22v-1.58c0-3.18-.48-4.81-3.26-4.81h-15.8c-2.05.23-2.93 1.57-2.93 3.12V45.1Z" fill="#fff"/><path d="M35.6 50.92c-.02.2 1.1 1.43 2.11 2.43 3.71 3.71 8.25 5.92 13.52 5.85 8 0 14.63-4.97 17.37-12h-19V34.37c-.1 0-13.98 16.4-14 16.55Z" fill="#fff"/></svg>