<svg width="200" height="81" viewBox="0 0 200 81" xmlns="http://www.w3.org/2000/svg"><path d="M0 .2h200v80H0z"/><path d="M68 56.85h1.42c0 .5.47 1.02 1.13 1.02.66 0 1.03-.4 1.03-.92 0-.41-.28-.72-.84-.92l-.85-.31c-1.51-.41-1.8-1.44-1.8-2.16 0-1.33 1.04-2.35 2.46-2.35 1.41 0 2.45.92 2.45 2.35h-1.5c0-.5-.48-.92-1.05-.92a.9.9 0 0 0-.94.92c0 .2.1.62.75.82l.76.21c1.04.3 1.98.92 1.98 2.26 0 1.53-1.23 2.36-2.55 2.36-1.41 0-2.45-1.03-2.45-2.36ZM83.83 59.2h-1.42l-.57-5-1.7 4H79l-1.71-4-.47 5h-1.43l.76-8h1.24l2.18 5.23 2.18-5.22h1.23l.85 8ZM90.94 59.2l-.57-2h-2.65l-.57 2h-1.52l2.66-8h1.51l2.66 8h-1.52Zm-2.84-3.5h1.8l-.95-2.79-.85 2.8ZM98.14 59.2l-1.7-2.87H96v2.88h-1.46v-8h2.84c1.62 0 2.28 1.28 2.28 2.56 0 1.17-.66 2.24-1.7 2.45l1.8 2.88-1.62.1ZM96 52.6v2.34h1.1c.76 0 1.14-.53 1.14-1.17 0-.64-.38-1.18-1.04-1.18H96ZM107 51.2v1.41h-2.21v6.6h-1.58v-6.6H101v-1.4h6ZM110.56 57.8H114v1.4h-5v-8h5v1.41h-3.44v1.95h2.92v1.51h-2.92v1.73ZM120.23 59.2l-1.7-2.87H118v2.88h-1.37v-8h2.84c1.61 0 2.28 1.28 2.28 2.56 0 1.17-.67 2.24-1.71 2.45l1.8 2.88-1.61.1ZM118 52.6v2.34h1.19c.76 0 1.14-.53 1.14-1.17 0-.64-.38-1.18-1.05-1.18H118ZM133 51.2v1.41h-2.25v6.6h-1.5v-6.6H127v-1.4h6ZM138.46 59.2l-1.64-2.87h-.46v2.88H135v-8h2.73c1.54 0 2.18 1.28 2.18 2.56 0 1.17-.64 2.24-1.64 2.45L140 59.1l-1.54.1Zm-2.1-6.6v2.34h1.1c.72 0 1.08-.53 1.08-1.17 0-.64-.36-1.18-1-1.18h-1.18ZM147.3 59.2l-.56-2h-2.66l-.56 2H142l2.65-8h1.52l2.66 8h-1.52Zm-2.84-3.5h1.8l-.94-2.79-.85 2.8ZM153.76 51.2c2 0 3.24 1.73 3.24 4 0 2.28-1.14 4-3.24 4H151v-8h2.76Zm0 6.6c1.15 0 1.81-1.19 1.81-2.6 0-1.4-.57-2.59-1.8-2.59h-1.34v5.19h1.33ZM159.5 59.2v-8h1.5v8h-1.5ZM167.89 51.2h1.42v8h-1.33l-2.56-5v5H164v-8h1.33l2.56 4.91v-4.9ZM171.9 55.2c0-2.15 1.6-4 3.6-4 1.03 0 1.98.52 2.65 1.24l-1.05.92c-.38-.51-.94-.72-1.6-.72-1.24 0-2.19 1.13-2.19 2.57 0 1.33.95 2.56 2.28 2.56.94 0 1.8-.64 1.8-1.56h-2V55H179c0 2.87-1.42 4.2-3.41 4.2-2.09.1-3.7-1.74-3.7-4ZM77.8 22.7A10.9 10.9 0 0 0 67 33.67c0 6 4.83 11.05 10.8 11.05 5.96 0 10.79-4.96 10.79-11.05 0-6.1-4.83-10.95-10.8-10.95Zm0 17.15c-3.32 0-5.69-2.57-5.69-6.2 0-3.61 2.37-6.18 5.68-6.18 3.32 0 5.68 2.66 5.68 6.19 0 3.52-2.46 6.19-5.68 6.19ZM128.57 23.2v10.32l-7.71-10.31H116v21h5.43V33.7l7.9 10.5H134v-21h-5.43ZM146.8 23.2H138v21h8.8c5.78 0 9.66-4.23 9.66-10.45 0-6.21-3.88-10.54-9.66-10.54Zm-3.8 5h3.8c2.94 0 4.2 2.82 4.2 5.55s-1.26 5.46-4.2 5.46H143v-11ZM106.76 44.2h5.77l-8.61-21h-5.3L90 44.2h5.68l1.7-5h7.58l1.8 5Zm-7.67-9.5 2.08-5.75 2.08 5.76H99.1ZM174.22 44.2H180l-8.62-21h-5.3l-8.61 21h5.77l1.7-5h7.58l1.7 5Zm-7.66-9.5 2.08-5.75 2.08 5.76h-4.16ZM29 41.2h-5.9l-3.1-12h6l3 12ZM55 31.2h-6l5-18h6l-5 18ZM43 22.2l-5.39 19.07-3.03 10.94h6.06l8.36-30h-6Z" fill="#fff"/><path d="M35.62 34.2h-6.06l5.03 18h6.05l-5.02-18Z" fill="#fff"/></svg>