<svg width="200" height="81" viewBox="0 0 200 81" xmlns="http://www.w3.org/2000/svg"><path d="M0 .2h200v80H0z"/><path fill-rule="evenodd" d="M37.9 21.2c-.5 0-.9.4-.9.9v36.2c0 .5.4.9.9.9h36.2c.5 0 .9-.4.9-.9V22.1c0-.5-.4-.9-.9-.9H37.9Zm12.6 12.63c-.48 0-.88.4-.88.89V45.7c0 .5.4.9.89.9h10.98c.5 0 .9-.4.9-.9V34.72c0-.5-.4-.9-.9-.9H50.5Zm75.27-11.73c0-.5.4-.9.89-.9h10.98c.5 0 .9.4.9.9V33.1a.9.9 0 0 1-.9.89h-10.98a.9.9 0 0 1-.9-.9V22.1l.01-.01Zm0 25.23c0-.5.4-.9.89-.9h10.98c.5 0 .9.4.9.9v10.98c0 .5-.4.89-.9.89h-10.98a.9.9 0 0 1-.9-.9V47.35l.01-.02Zm13.5-13.5a.9.9 0 0 0-.89.89V45.7c0 .5.4.9.9.9h10.98a.9.9 0 0 0 .89-.9V34.72c0-.5-.4-.9-.9-.9h-10.98ZM151 47.33c0-.5.4-.9.9-.9h10.97c.5 0 .9.4.9.9v10.98c0 .5-.4.89-.9.89H151.9a.9.9 0 0 1-.89-.9V47.35l-.01-.02Zm.9-26.12c-.5 0-.9.4-.9.9v10.98c0 .49.4.89.9.89h10.97c.5 0 .9-.4.9-.9V22.1c0-.5-.4-.9-.9-.9H151.9Zm-69.78 0a.9.9 0 0 0-.89.9v36.2c0 .5.4.9.9.9h10.98c.5 0 .89-.4.89-.9V46.6h11.88a.9.9 0 0 0 .89-.9V34.73c0-.5-.4-.9-.9-.9H94V22.1c0-.5-.4-.9-.9-.9H82.12Zm25.54 0c-.5 0-.9.4-.9.9v10.98c0 .49.4.89.9.89h10.98c.5 0 .9-.4.9-.9V22.1c0-.5-.4-.9-.9-.9h-10.98Zm0 25.23c-.5 0-.9.4-.9.9V58.3c0 .5.4.89.9.89h10.98c.5 0 .9-.4.9-.9V47.35c0-.5-.4-.9-.9-.9h-10.98v-.01Z" fill="#fff"/></svg>